2.5Hzlow3min_grf.mot
version=1
nRows=20
nColumns 19
inDegrees=yes
endheader
time	1_ground_force_vx	1_ground_force_vy	1_ground_force_vz	1_ground_force_px	1_ground_force_py	1_ground_force_pz	1_ground_torque_x	1_ground_torque_y	1_ground_torque_z	2_ground_force_vx	2_ground_force_vy	2_ground_force_vz	2_ground_force_px	2_ground_force_py	2_ground_force_pz	2_ground_torque_x	2_ground_torque_y	2_ground_torque_z
            0.005000	            1.158810	          190.718364	            1.502675	           -0.241669	            0.006449	           -0.458311	            0.002168	            0.356869	            0.002812	           16.622151	          341.974657	           16.135704	           -0.276574	            0.005454	           -0.689065	           -0.017919	           -0.368659	           -0.017395
            0.005500	            0.929813	          187.654393	            1.352536	           -0.241853	            0.006452	           -0.459066	            0.001271	            0.256559	            0.001849	           16.540291	          338.660668	           15.842348	           -0.276784	            0.005453	           -0.688984	           -0.018801	           -0.384951	           -0.018008
            0.006000	            1.067655	          185.311163	            1.296290	           -0.241416	            0.006449	           -0.458315	            0.001266	            0.219689	            0.001537	           16.267770	          336.266204	           15.693142	           -0.276489	            0.005456	           -0.689400	           -0.016709	           -0.345382	           -0.016119
            0.006500	            1.022126	          182.967897	            1.240499	           -0.241117	            0.006450	           -0.458674	            0.001128	            0.202003	            0.001370	           16.282269	          332.215991	           15.397118	           -0.276520	            0.005454	           -0.688884	           -0.016317	           -0.332935	           -0.015430
            0.007000	            1.114405	          179.723132	            1.226358	           -0.240921	            0.006453	           -0.459214	            0.001602	            0.258357	            0.001763	           16.290929	          329.821872	           15.435504	           -0.276554	            0.005456	           -0.689373	           -0.017082	           -0.345841	           -0.016185
            0.007500	            1.023422	          177.739602	            1.355651	           -0.241026	            0.006449	           -0.458394	            0.002007	            0.348613	            0.002659	           16.257288	          326.139376	           15.234670	           -0.276418	            0.005454	           -0.688782	           -0.017378	           -0.348617	           -0.016285
            0.008000	            0.886126	          175.216249	            1.253459	           -0.240738	            0.006452	           -0.459099	            0.001582	            0.312879	            0.002238	           16.221615	          323.009697	           14.941952	           -0.276558	            0.005454	           -0.688885	           -0.016074	           -0.320078	           -0.014806
            0.008500	            0.842011	          173.230959	            1.795341	           -0.241265	            0.006448	           -0.458159	            0.001000	            0.205759	            0.002132	           16.183321	          320.616307	           14.745717	           -0.276238	            0.005457	           -0.689335	           -0.018120	           -0.358994	           -0.016511
            0.009000	            0.750412	          170.888077	            1.647953	           -0.240841	            0.006448	           -0.458015	            0.000746	            0.169987	            0.001639	           15.869392	          316.747483	           14.872843	           -0.276309	            0.005454	           -0.688744	           -0.013636	           -0.272176	           -0.012780
            0.009500	            0.659090	          167.643671	            1.542555	           -0.241005	            0.006451	           -0.458722	            0.000345	            0.087696	            0.000807	           15.926107	          313.986257	           14.628327	           -0.275793	            0.005457	           -0.688910	           -0.015046	           -0.296637	           -0.013820
            0.010000	            0.888634	          165.841058	            1.534257	           -0.240577	            0.006451	           -0.458895	            0.001070	            0.199597	            0.001847	           15.941290	          309.751675	           14.378574	           -0.275967	            0.005454	           -0.688382	           -0.013863	           -0.269363	           -0.012504
            0.010500	            0.751827	          163.136653	            1.614715	           -0.240500	            0.006451	           -0.458914	            0.000958	            0.207974	            0.002059	           15.761928	          307.540746	           14.511553	           -0.275616	            0.005457	           -0.688792	           -0.010192	           -0.198867	           -0.009384
            0.011000	            0.889622	          160.433088	            1.511068	           -0.240584	            0.006454	           -0.459446	            0.001571	            0.283286	            0.002668	           15.960543	          304.411579	           14.312591	           -0.275675	            0.005455	           -0.688434	           -0.016245	           -0.309831	           -0.014567
            0.011500	            0.615594	          157.908332	            1.730208	           -0.240179	            0.006457	           -0.460159	            0.000990	            0.254065	            0.002784	           15.876066	          301.833818	           14.115720	           -0.275612	            0.005457	           -0.688808	           -0.015272	           -0.290351	           -0.013579
            0.012000	            0.477938	          156.106435	            1.539396	           -0.240163	            0.006453	           -0.459335	            0.000354	            0.115749	            0.001141	           15.323734	          299.070392	           13.871462	           -0.275634	            0.005459	           -0.689292	           -0.015119	           -0.295083	           -0.013687
            0.012500	            0.524680	          154.302805	            1.760833	           -0.240717	            0.006453	           -0.459224	            0.000449	            0.132171	            0.001508	           15.804902	          295.572954	           13.952635	           -0.275372	            0.005457	           -0.688487	           -0.019147	           -0.358077	           -0.016903
            0.013000	            0.204126	          151.779220	            1.704952	           -0.240551	            0.006456	           -0.460038	            0.000016	            0.011882	            0.000133	           15.439407	          292.993509	           13.943596	           -0.275127	            0.005459	           -0.688787	           -0.012088	           -0.229386	           -0.010917
            0.013500	            0.433897	          149.976214	            1.788365	           -0.240447	            0.006454	           -0.459471	            0.000222	            0.076573	            0.000913	           15.125335	          289.125857	           13.742224	           -0.275373	            0.005455	           -0.688085	           -0.012324	           -0.235581	           -0.011197
            0.014000	            0.480069	          148.173566	            1.780522	           -0.240013	            0.006452	           -0.458916	            0.000549	            0.169347	            0.002035	           14.805318	          286.915258	           13.640623	           -0.275258	            0.005456	           -0.688191	           -0.007859	           -0.152299	           -0.007241
            0.014500	            0.388047	          145.651205	            1.448936	           -0.239508	            0.006452	           -0.459063	            0.000654	            0.245639	            0.002444	           15.100354	          283.049303	           13.579777	           -0.275112	            0.005455	           -0.687865	           -0.008364	           -0.156782	           -0.007522
